<?xml version="1.0" encoding="UTF-8" standalone="no"?>
<!DOCTYPE svg PUBLIC "-//W3C//DTD SVG 1.1//EN" "http://www.w3.org/Graphics/SVG/1.1/DTD/svg11.dtd">
<svg version="1.1" xmlns="http://www.w3.org/2000/svg" xmlns:xlink="http://www.w3.org/1999/xlink" preserveAspectRatio="xMidYMid meet" viewBox="0 0 640 640" width="640" height="640"><defs><path d="M616.28 329.14C616.28 486.53 483.52 614.32 320 614.32C156.48 614.32 23.72 486.53 23.72 329.14C23.72 171.74 156.48 43.95 320 43.95C483.52 43.95 616.28 171.74 616.28 329.14Z" id="a1yLjWZ3Nd"></path><path d="M80.33 261.92L210.85 261.92L210.85 215.59L80.33 215.59L80.33 261.92Z" id="b6MrA94fQ"></path><mask id="maskd4IMO9pdQ" x="78.33" y="213.59" width="134.52" height="50.33" maskUnits="userSpaceOnUse"><rect x="78.33" y="213.59" width="134.52" height="50.33" fill="white"></rect><use xlink:href="#b6MrA94fQ" opacity="1" fill="black"></use></mask><path d="M254.74 261.92L385.26 261.92L385.26 215.59L254.74 215.59L254.74 261.92Z" id="b1g6RYAVMq"></path><mask id="maskk5Bz8zgstM" x="252.74" y="213.59" width="134.52" height="50.33" maskUnits="userSpaceOnUse"><rect x="252.74" y="213.59" width="134.52" height="50.33" fill="white"></rect><use xlink:href="#b1g6RYAVMq" opacity="1" fill="black"></use></mask><path d="M429.24 261.92L559.76 261.92L559.76 215.59L429.24 215.59L429.24 261.92Z" id="e4NR8xFFdJ"></path><mask id="maska62EAwMFu" x="427.24" y="213.59" width="134.52" height="50.33" maskUnits="userSpaceOnUse"><rect x="427.24" y="213.59" width="134.52" height="50.33" fill="white"></rect><use xlink:href="#e4NR8xFFdJ" opacity="1" fill="black"></use></mask><path d="M80.33 337.6L210.85 337.6L210.85 291.27L80.33 291.27L80.33 337.6Z" id="hqqhVsI7J"></path><mask id="maskhvzbbhi4" x="78.33" y="289.27" width="134.52" height="50.33" maskUnits="userSpaceOnUse"><rect x="78.33" y="289.27" width="134.52" height="50.33" fill="white"></rect><use xlink:href="#hqqhVsI7J" opacity="1" fill="black"></use></mask><path d="M254.74 337.6L385.26 337.6L385.26 291.27L254.74 291.27L254.74 337.6Z" id="aOVkihXwb"></path><mask id="maskcZOQm1GrC" x="252.74" y="289.27" width="134.52" height="50.33" maskUnits="userSpaceOnUse"><rect x="252.74" y="289.27" width="134.52" height="50.33" fill="white"></rect><use xlink:href="#aOVkihXwb" opacity="1" fill="black"></use></mask><path d="M429.24 337.6L559.76 337.6L559.76 291.27L429.24 291.27L429.24 337.6Z" id="b1eS9rWCBo"></path><mask id="maskag9bCTqdr" x="427.24" y="289.27" width="134.52" height="50.33" maskUnits="userSpaceOnUse"><rect x="427.24" y="289.27" width="134.52" height="50.33" fill="white"></rect><use xlink:href="#b1eS9rWCBo" opacity="1" fill="black"></use></mask><path d="M80.33 413.93L210.85 413.93L210.85 367.6L80.33 367.6L80.33 413.93Z" id="cMgAFhME"></path><mask id="maske1MxJOCny" x="78.33" y="365.6" width="134.52" height="50.33" maskUnits="userSpaceOnUse"><rect x="78.33" y="365.6" width="134.52" height="50.33" fill="white"></rect><use xlink:href="#cMgAFhME" opacity="1" fill="black"></use></mask><path d="M254.74 413.93L385.26 413.93L385.26 367.6L254.74 367.6L254.74 413.93Z" id="eb8Kpmyrx"></path><mask id="maska3Tf2qIhuG" x="252.74" y="365.6" width="134.52" height="50.33" maskUnits="userSpaceOnUse"><rect x="252.74" y="365.6" width="134.52" height="50.33" fill="white"></rect><use xlink:href="#eb8Kpmyrx" opacity="1" fill="black"></use></mask><path d="M429.24 413.93L559.76 413.93L559.76 367.6L429.24 367.6L429.24 413.93Z" id="aSWoG7kcg"></path><mask id="maskk2Itpktigm" x="427.24" y="365.6" width="134.52" height="50.33" maskUnits="userSpaceOnUse"><rect x="427.24" y="365.6" width="134.52" height="50.33" fill="white"></rect><use xlink:href="#aSWoG7kcg" opacity="1" fill="black"></use></mask><path d="M148.31 305.8L137.45 305.8L137.45 323.07L153.74 323.07L153.74 312.99L156.46 312.99L156.46 325.95L134.73 325.95L134.73 302.92L148.31 302.92L148.31 305.8ZM147.78 316.18L147.78 316.18L144.63 319.51L138.8 313.33L141.95 310L144.63 312.84L151.95 305.08L155.1 308.41L147.78 316.18Z" id="a1m7ZM3os"></path><path d="M497.21 305.8L486.35 305.8L486.35 323.07L502.65 323.07L502.65 312.99L505.36 312.99L505.36 325.95L483.64 325.95L483.64 302.92L497.21 302.92L497.21 305.8ZM496.68 316.18L496.68 316.18L493.54 319.51L487.71 313.33L490.85 310L493.54 312.84L500.86 305.08L504 308.41L496.68 316.18Z" id="b1oQ6foeRT"></path><path d="M322.72 382.13L311.85 382.13L311.85 399.4L328.15 399.4L328.15 389.33L330.86 389.33L330.86 402.28L309.14 402.28L309.14 379.25L322.72 379.25L322.72 382.13ZM322.18 392.51L322.18 392.51L319.04 395.85L313.21 389.67L316.35 386.33L319.04 389.17L326.36 381.41L329.51 384.75L322.18 392.51Z" id="b2uDQr8Yg"></path><path d="M322.72 230.12L311.85 230.12L311.85 247.39L328.15 247.39L328.15 237.31L330.86 237.31L330.86 250.27L309.14 250.27L309.14 227.24L322.72 227.24L322.72 230.12ZM322.18 240.49L322.18 240.49L319.04 243.83L313.21 237.65L316.35 234.31L319.04 237.16L326.36 229.4L329.51 232.73L322.18 240.49Z" id="bbx6WxG90"></path><path d="M194.58 320.88L194.58 320.88L189.47 325.95L179.99 316.56L185.11 311.49L189.47 315.81L202.47 302.92L207.59 307.99L194.58 320.88Z" id="a1dF3m5dYn"></path><path d="M543.49 320.88L543.49 320.88L538.37 325.95L528.89 316.56L534.01 311.49L538.37 315.81L551.38 302.92L556.5 307.99L543.49 320.88Z" id="a16rhHidrk"></path><path d="M371.84 238.75L380.69 246.13L375.74 250.27L366.89 242.89L358.04 250.27L353.09 246.13L361.94 238.75L353.09 231.37L358.04 227.24L366.89 234.62L375.74 227.24L380.69 231.37L371.84 238.75Z" id="a1LjzFcGXk"></path><path d="M371.4 390.77L380.25 398.15L375.3 402.28L366.45 394.9L357.6 402.28L352.65 398.15L361.5 390.77L352.65 383.39L357.6 379.25L366.45 386.63L375.3 379.25L380.25 383.39L371.4 390.77Z" id="b8JOpQEBTz"></path><path d="M134.73 227.24L156.46 227.24L156.46 250.27L134.73 250.27L134.73 227.24Z" id="a5csBzGUtb"></path><path d="M134.73 379.25L156.46 379.25L156.46 402.28L134.73 402.28L134.73 379.25Z" id="jjBYL5wpy"></path><path d="M309.14 302.92L330.86 302.92L330.86 325.95L309.14 325.95L309.14 302.92Z" id="d19AqIjgMV"></path><path d="M483.64 227.24L505.36 227.24L505.36 250.27L483.64 250.27L483.64 227.24Z" id="aifF8fJ6h"></path><path d="M483.64 379.25L505.36 379.25L505.36 402.28L483.64 402.28L483.64 379.25Z" id="j43MRGrm7i"></path></defs><g><g><g><use xlink:href="#a1yLjWZ3Nd" opacity="1" fill="#fbe782" fill-opacity="1"></use><g><use xlink:href="#a1yLjWZ3Nd" opacity="1" fill-opacity="0" stroke="#7a3d20" stroke-width="1" stroke-opacity="0"></use></g></g><g><use xlink:href="#b6MrA94fQ" opacity="1" fill="#ffffff" fill-opacity="1"></use><g mask="url(#maskd4IMO9pdQ)"><use xlink:href="#b6MrA94fQ" opacity="1" fill-opacity="0" stroke="#878787" stroke-width="2" stroke-opacity="1"></use></g></g><g><use xlink:href="#b1g6RYAVMq" opacity="1" fill="#f3a3a3" fill-opacity="1"></use><g mask="url(#maskk5Bz8zgstM)"><use xlink:href="#b1g6RYAVMq" opacity="1" fill-opacity="0" stroke="#878787" stroke-width="2" stroke-opacity="1"></use></g></g><g><use xlink:href="#e4NR8xFFdJ" opacity="1" fill="#ffffff" fill-opacity="1"></use><g mask="url(#maska62EAwMFu)"><use xlink:href="#e4NR8xFFdJ" opacity="1" fill-opacity="0" stroke="#878787" stroke-width="2" stroke-opacity="1"></use></g></g><g><use xlink:href="#hqqhVsI7J" opacity="1" fill="#92f66b" fill-opacity="1"></use><g mask="url(#maskhvzbbhi4)"><use xlink:href="#hqqhVsI7J" opacity="1" fill-opacity="0" stroke="#878787" stroke-width="2" stroke-opacity="1"></use></g></g><g><use xlink:href="#aOVkihXwb" opacity="1" fill="#ffffff" fill-opacity="1"></use><g mask="url(#maskcZOQm1GrC)"><use xlink:href="#aOVkihXwb" opacity="1" fill-opacity="0" stroke="#878787" stroke-width="2" stroke-opacity="1"></use></g></g><g><use xlink:href="#b1eS9rWCBo" opacity="1" fill="#92f66b" fill-opacity="1"></use><g mask="url(#maskag9bCTqdr)"><use xlink:href="#b1eS9rWCBo" opacity="1" fill-opacity="0" stroke="#878787" stroke-width="2" stroke-opacity="1"></use></g></g><g><use xlink:href="#cMgAFhME" opacity="1" fill="#ffffff" fill-opacity="1"></use><g mask="url(#maske1MxJOCny)"><use xlink:href="#cMgAFhME" opacity="1" fill-opacity="0" stroke="#878787" stroke-width="2" stroke-opacity="1"></use></g></g><g><use xlink:href="#eb8Kpmyrx" opacity="1" fill="#f3a3a3" fill-opacity="1"></use><g mask="url(#maska3Tf2qIhuG)"><use xlink:href="#eb8Kpmyrx" opacity="1" fill-opacity="0" stroke="#878787" stroke-width="2" stroke-opacity="1"></use></g></g><g><use xlink:href="#aSWoG7kcg" opacity="1" fill="#ffffff" fill-opacity="1"></use><g mask="url(#maskk2Itpktigm)"><use xlink:href="#aSWoG7kcg" opacity="1" fill-opacity="0" stroke="#878787" stroke-width="2" stroke-opacity="1"></use></g></g><g><use xlink:href="#a1m7ZM3os" opacity="1" fill="#cccccc" fill-opacity="1"></use></g><g><use xlink:href="#b1oQ6foeRT" opacity="1" fill="#cccccc" fill-opacity="1"></use></g><g><use xlink:href="#b2uDQr8Yg" opacity="1" fill="#cccccc" fill-opacity="1"></use></g><g><use xlink:href="#bbx6WxG90" opacity="1" fill="#cccccc" fill-opacity="1"></use></g><g><use xlink:href="#a1dF3m5dYn" opacity="1" fill="#35950f" fill-opacity="1"></use></g><g><use xlink:href="#a16rhHidrk" opacity="1" fill="#35950f" fill-opacity="1"></use></g><g><use xlink:href="#a1LjzFcGXk" opacity="1" fill="#ef0000" fill-opacity="1"></use></g><g><use xlink:href="#b8JOpQEBTz" opacity="1" fill="#ef0000" fill-opacity="1"></use></g><g><use xlink:href="#a5csBzGUtb" opacity="1" fill="#ffffff" fill-opacity="0"></use><g><use xlink:href="#a5csBzGUtb" opacity="1" fill-opacity="0" stroke="#cccccc" stroke-width="1" stroke-opacity="1"></use></g></g><g><use xlink:href="#jjBYL5wpy" opacity="1" fill="#ffffff" fill-opacity="0"></use><g><use xlink:href="#jjBYL5wpy" opacity="1" fill-opacity="0" stroke="#cccccc" stroke-width="1" stroke-opacity="1"></use></g></g><g><use xlink:href="#d19AqIjgMV" opacity="1" fill="#ffffff" fill-opacity="0"></use><g><use xlink:href="#d19AqIjgMV" opacity="1" fill-opacity="0" stroke="#cccccc" stroke-width="1" stroke-opacity="1"></use></g></g><g><use xlink:href="#aifF8fJ6h" opacity="1" fill="#ffffff" fill-opacity="0"></use><g><use xlink:href="#aifF8fJ6h" opacity="1" fill-opacity="0" stroke="#cccccc" stroke-width="1" stroke-opacity="1"></use></g></g><g><use xlink:href="#j43MRGrm7i" opacity="1" fill="#ffffff" fill-opacity="0"></use><g><use xlink:href="#j43MRGrm7i" opacity="1" fill-opacity="0" stroke="#cccccc" stroke-width="1" stroke-opacity="1"></use></g></g></g></g></svg>